<svg version="1.1" id="Layer_1" xmlns="http://www.w3.org/2000/svg" xmlns:xlink="http://www.w3.org/1999/xlink" x="0px" y="0px" width="100px" height="100px" viewBox="33.375 44.69600296020508 36.032997131347656 23.006999969482422" enable-background="new 0 0 100 100" xml:space="preserve">
<g>
	<g>
		<path d="M68.56,53.313H34.223c-0.468,0-0.848-0.526-0.848-1.175c0-0.649,0.38-1.175,0.848-1.175H68.56
			c0.468,0,0.848,0.525,0.848,1.175C69.408,52.786,69.028,53.313,68.56,53.313z"></path>
	</g>
	<g>
		<path d="M68.56,47.046H34.223c-0.468,0-0.848-0.525-0.848-1.175c0-0.648,0.38-1.175,0.848-1.175H68.56
			c0.468,0,0.848,0.526,0.848,1.175C69.407,46.521,69.028,47.046,68.56,47.046z"></path>
	</g>
	<g>
		<path d="M68.56,60.36H34.223c-0.468,0-0.848-0.526-0.848-1.174c0-0.649,0.38-1.175,0.848-1.175H68.56
			c0.468,0,0.848,0.525,0.848,1.175C69.407,59.834,69.028,60.36,68.56,60.36z"></path>
	</g>
	<g>
		<path d="M68.56,67.703H34.223c-0.468,0-0.848-0.526-0.848-1.175c0-0.649,0.38-1.175,0.848-1.175H68.56
			c0.468,0,0.848,0.525,0.848,1.175C69.407,67.177,69.028,67.703,68.56,67.703z"></path>
	</g>
</g>
</svg>